<svg width="24" height="24" viewBox="0 0 24 24" fill="none" xmlns="http://www.w3.org/2000/svg">
<g clip-path="url(#clip0_42_378)">
<path fill-rule="evenodd" clip-rule="evenodd" d="M4.61523 10.6154C4.61523 10.493 4.66386 10.3756 4.75042 10.289C4.83697 10.2025 4.95437 10.1539 5.07677 10.1539H15.5149C15.6373 10.1539 15.7547 10.2025 15.8413 10.289C15.9278 10.3756 15.9765 10.493 15.9765 10.6154C15.9765 10.7378 15.9278 10.8552 15.8413 10.9418C15.7547 11.0283 15.6373 11.0769 15.5149 11.0769H5.07677C4.95437 11.0769 4.83697 11.0283 4.75042 10.9418C4.66386 10.8552 4.61523 10.7378 4.61523 10.6154ZM4.61523 6.92309C4.61523 6.80068 4.66386 6.68328 4.75042 6.59673C4.83697 6.51017 4.95437 6.46155 5.07677 6.46155H18.9229C19.0453 6.46155 19.1627 6.51017 19.2493 6.59673C19.3358 6.68328 19.3845 6.80068 19.3845 6.92309C19.3845 7.04549 19.3358 7.16289 19.2493 7.24944C19.1627 7.336 19.0453 7.38462 18.9229 7.38462H5.07677C4.95437 7.38462 4.83697 7.336 4.75042 7.24944C4.66386 7.16289 4.61523 7.04549 4.61523 6.92309ZM4.61523 14.3077C4.61523 14.1853 4.66386 14.0679 4.75042 13.9813C4.83697 13.8948 4.95437 13.8462 5.07677 13.8462H18.9229C19.0453 13.8462 19.1627 13.8948 19.2493 13.9813C19.3358 14.0679 19.3845 14.1853 19.3845 14.3077C19.3845 14.4301 19.3358 14.5475 19.2493 14.6341C19.1627 14.7206 19.0453 14.7692 18.9229 14.7692H5.07677C4.95437 14.7692 4.83697 14.7206 4.75042 14.6341C4.66386 14.5475 4.61523 14.4301 4.61523 14.3077ZM4.61523 18C4.61523 17.8776 4.66386 17.7602 4.75042 17.6737C4.83697 17.5871 4.95437 17.5385 5.07677 17.5385H15.5149C15.6373 17.5385 15.7547 17.5871 15.8413 17.6737C15.9278 17.7602 15.9765 17.8776 15.9765 18C15.9765 18.1224 15.9278 18.2398 15.8413 18.3264C15.7547 18.4129 15.6373 18.4615 15.5149 18.4615H5.07677C4.95437 18.4615 4.83697 18.4129 4.75042 18.3264C4.66386 18.2398 4.61523 18.1224 4.61523 18Z" fill="#935335"/>
<path fill-rule="evenodd" clip-rule="evenodd" d="M11.9999 22.6154C17.8623 22.6154 22.6153 17.8625 22.6153 12C22.6153 6.13755 17.8623 1.38462 11.9999 1.38462C6.13743 1.38462 1.3845 6.13755 1.3845 12C1.3845 17.8625 6.13743 22.6154 11.9999 22.6154ZM11.9999 23.5385C18.3728 23.5385 23.5383 18.3729 23.5383 12C23.5383 5.62709 18.3728 0.461548 11.9999 0.461548C5.62696 0.461548 0.461426 5.62709 0.461426 12C0.461426 18.3729 5.62696 23.5385 11.9999 23.5385Z" fill="#935335"/>
</g>
<defs>
<clipPath id="clip0_42_378">
<rect width="24" height="24" fill="white"/>
</clipPath>
</defs>
</svg>
