<svg width="126" height="97" viewBox="0 0 126 97" fill="none" xmlns="http://www.w3.org/2000/svg">
<mask id="mask0_1_71" style="mask-type:alpha" maskUnits="userSpaceOnUse" x="0" y="0" width="126" height="97">
<path d="M71.4348 7.11386C64.6386 5.00039 54.6076 3.0812 45.169 3.87285C35.7461 4.66319 26.5188 8.21006 22.0771 17.4351C19.4345 22.9236 17.5777 26.3802 16.234 28.5498C14.8518 30.7815 14.1294 31.4496 13.8219 31.6388C13.7767 31.6667 13.7745 31.6786 13.7679 31.6819C13.753 31.6892 13.7161 31.6517 13.1093 31.6517C12.651 31.6517 12.112 31.7365 11.5272 32.0725C10.9938 32.379 10.5136 32.8426 10.0386 33.4364C9.90026 33.6093 9.74395 33.8005 9.57282 34.0097C7.787 36.1935 4.38747 40.3507 2.99478 46.3193C1.44469 52.9626 2.41559 61.5942 9.98854 72.1123C21.9127 88.6736 33.9837 93.1813 39.044 93.1813H48.8316C49.0235 93.1813 49.4473 93.2184 50.1655 93.3037C50.6347 93.3594 51.1812 93.4293 51.8036 93.509C52.0959 93.5464 52.4049 93.5859 52.7304 93.6271C54.7517 93.883 57.3341 94.1931 60.13 94.4002C65.6449 94.8088 72.2776 94.8442 77.1207 93.083C85.9004 89.8904 90.63 89.0933 102.772 88.2838C105.791 88.0826 107.716 87.8229 108.793 87.4189C109.082 87.3105 109.407 87.1578 109.696 86.9264C109.997 86.6862 110.332 86.2988 110.452 85.7363C110.573 85.1719 110.423 84.6892 110.257 84.3685C110.099 84.0626 109.89 83.8274 109.73 83.6675C109.417 83.3541 109.013 83.0618 108.714 82.8472C108.674 82.8179 108.634 82.7893 108.595 82.7612C108.304 82.5525 108.057 82.3751 107.837 82.1914C107.734 82.1056 107.657 82.0342 107.599 81.9768C107.684 81.7949 107.808 81.5482 107.98 81.2281C108.266 80.6979 108.636 80.0525 109.07 79.3068C109.206 79.0726 109.348 78.8293 109.494 78.578C110.272 77.2447 111.18 75.6869 112.051 74.0758C113.084 72.1644 114.095 70.123 114.797 68.2188C115.476 66.379 115.97 64.4039 115.692 62.7346C115.625 62.3368 115.665 62.1033 115.71 61.9688C115.754 61.8378 115.834 61.709 115.991 61.5642C116.368 61.2164 117.006 60.9275 118.011 60.5572C118.116 60.5183 118.227 60.4782 118.343 60.4364C119.172 60.1361 120.225 59.755 121.061 59.2021C122.13 58.4954 123.054 57.3778 123.054 55.662C123.054 54.4085 122.8 53.3965 122.378 52.5358C121.969 51.6989 121.432 51.0754 121.011 50.602L120.953 50.5366C120.133 49.6145 119.792 49.2311 119.792 48.3213C119.792 47.8408 119.777 47.3442 119.762 46.8313C119.669 43.6636 119.558 39.8733 122.751 35.4036C123.8 33.9347 124.531 32.2109 123.537 30.703C123.105 30.0469 122.475 29.6803 121.976 29.4622C121.467 29.2402 120.918 29.0985 120.471 28.9933C120.293 28.9514 120.135 28.9159 119.99 28.8833C119.836 28.8487 119.696 28.8174 119.562 28.785C121.537 26.1572 121.614 22.1628 120.756 18.9459C120.304 17.2506 119.556 15.6086 118.523 14.3018C117.492 12.9976 116.093 11.9303 114.351 11.6399C112.965 11.409 111.61 11.414 110.378 11.4396C110.194 11.4434 110.014 11.4477 109.836 11.4519C108.783 11.4766 107.832 11.499 106.877 11.4194C104.796 11.2459 102.769 10.5935 100.64 8.10916C99.141 6.3608 96.7833 5.11922 94.3062 4.25359C91.7902 3.37434 88.9582 2.81672 86.3093 2.55183C83.6713 2.28803 81.1216 2.30526 79.1753 2.62965C78.2173 2.78931 77.2864 3.04205 76.5497 3.45262C75.8396 3.84839 74.932 4.62564 74.932 5.90823C74.932 6.36571 74.7867 6.62289 74.607 6.80995C74.3928 7.03291 74.0502 7.22906 73.604 7.36548C73.0965 7.52063 72.4467 7.42855 71.4348 7.11386Z" fill="#9C5838" stroke="black" stroke-width="3.26254"/>
</mask>
<g mask="url(#mask0_1_71)">
<path d="M71.4348 7.11386C64.6386 5.00039 54.6076 3.0812 45.169 3.87285C35.7461 4.66319 26.5188 8.21006 22.0771 17.4351C19.4345 22.9236 17.5777 26.3802 16.234 28.5498C14.8518 30.7815 14.1294 31.4496 13.8219 31.6388C13.7767 31.6667 13.7745 31.6786 13.7679 31.6819C13.753 31.6892 13.7161 31.6517 13.1093 31.6517C12.651 31.6517 12.112 31.7365 11.5272 32.0725C10.9938 32.379 10.5136 32.8426 10.0386 33.4364C9.90026 33.6093 9.74395 33.8005 9.57282 34.0097C7.787 36.1935 4.38747 40.3507 2.99478 46.3193C1.44469 52.9626 2.41559 61.5942 9.98854 72.1123C21.9127 88.6736 33.9837 93.1813 39.044 93.1813H48.8316C49.0235 93.1813 49.4473 93.2184 50.1655 93.3037C50.6347 93.3594 51.1812 93.4293 51.8036 93.509C52.0959 93.5464 52.4049 93.5859 52.7304 93.6271C54.7517 93.883 57.3341 94.1931 60.13 94.4002C65.6449 94.8088 72.2776 94.8442 77.1207 93.083C85.9004 89.8904 90.63 89.0933 102.772 88.2838C105.791 88.0826 107.716 87.8229 108.793 87.4189C109.082 87.3105 109.407 87.1578 109.696 86.9264C109.997 86.6862 110.332 86.2988 110.452 85.7363C110.573 85.1719 110.423 84.6892 110.257 84.3685C110.099 84.0626 109.89 83.8274 109.73 83.6675C109.417 83.3541 109.013 83.0618 108.714 82.8472C108.674 82.8179 108.634 82.7893 108.595 82.7612C108.304 82.5525 108.057 82.3751 107.837 82.1914C107.734 82.1056 107.657 82.0342 107.599 81.9768C107.684 81.7949 107.808 81.5482 107.98 81.2281C108.266 80.6979 108.636 80.0525 109.07 79.3068C109.206 79.0726 109.348 78.8293 109.494 78.578C110.272 77.2447 111.18 75.6869 112.051 74.0758C113.084 72.1644 114.095 70.123 114.797 68.2188C115.476 66.379 115.97 64.4039 115.692 62.7346C115.625 62.3368 115.665 62.1033 115.71 61.9688C115.754 61.8378 115.834 61.709 115.991 61.5642C116.368 61.2164 117.006 60.9275 118.011 60.5572C118.116 60.5183 118.227 60.4782 118.343 60.4364C119.172 60.1361 120.225 59.755 121.061 59.2021C122.13 58.4954 123.054 57.3778 123.054 55.662C123.054 54.4085 122.8 53.3965 122.378 52.5358C121.969 51.6989 121.432 51.0754 121.011 50.602L120.953 50.5366C120.133 49.6145 119.792 49.2311 119.792 48.3213C119.792 47.8408 119.777 47.3442 119.762 46.8313C119.669 43.6636 119.558 39.8733 122.751 35.4036C123.8 33.9347 124.531 32.2109 123.537 30.703C123.105 30.0469 122.475 29.6803 121.976 29.4622C121.467 29.2402 120.918 29.0985 120.471 28.9933C120.293 28.9514 120.135 28.9159 119.99 28.8833C119.836 28.8487 119.696 28.8174 119.562 28.785C121.537 26.1572 121.614 22.1628 120.756 18.9459C120.304 17.2506 119.556 15.6086 118.523 14.3018C117.492 12.9976 116.093 11.9303 114.351 11.6399C112.965 11.409 111.61 11.414 110.378 11.4396C110.194 11.4434 110.014 11.4477 109.836 11.4519C108.783 11.4766 107.832 11.499 106.877 11.4194C104.796 11.2459 102.769 10.5935 100.64 8.10916C99.141 6.3608 96.7833 5.11922 94.3062 4.25359C91.7902 3.37434 88.9582 2.81672 86.3093 2.55183C83.6713 2.28803 81.1216 2.30526 79.1753 2.62965C78.2173 2.78931 77.2864 3.04205 76.5497 3.45262C75.8396 3.84839 74.932 4.62564 74.932 5.90823C74.932 6.36571 74.7867 6.62289 74.607 6.80995C74.3928 7.03291 74.0502 7.22906 73.604 7.36548C73.0965 7.52063 72.4467 7.42855 71.4348 7.11386Z" fill="#9C5838" stroke="black" stroke-width="3.26254"/>
<path d="M54.5694 -27.0673C54.5694 -42.4656 46.8063 -41.0658 44.2187 -39.6659C42.781 -41.999 39.0433 -46.9451 35.593 -48.065C31.2802 -49.4649 26.9674 -39.6659 20.0668 -35.4664C13.1663 -31.2668 12.3038 -24.2676 8.85353 -17.2683C5.40327 -10.2691 -3.2224 17.7279 -6.67265 28.9267C-10.1229 40.1255 -0.634703 75.1218 1.95299 83.5209C4.54068 91.92 17.4791 100.319 20.0668 101.719C22.6545 103.119 31.2802 94.7197 37.3181 94.7197C43.3561 94.7197 41.631 91.92 44.2187 83.5209C46.8064 75.1218 44.2187 76.5216 39.9058 51.3243C35.593 26.127 38.1807 38.7257 39.9058 26.127C41.631 13.5284 39.0433 9.32882 44.2187 -1.86998C49.394 -13.0688 54.5694 -11.6689 54.5694 -27.0673Z" fill="#724129" fill-opacity="0.21"/>
<path d="M71.4348 7.11386C64.6386 5.00039 54.6076 3.0812 45.169 3.87285C35.7461 4.66319 26.5188 8.21006 22.0771 17.4351C19.4345 22.9236 17.5777 26.3802 16.234 28.5498C14.8518 30.7815 14.1294 31.4496 13.8219 31.6388C13.7767 31.6667 13.7745 31.6786 13.7679 31.6819C13.753 31.6892 13.7161 31.6517 13.1093 31.6517C12.651 31.6517 12.112 31.7365 11.5272 32.0725C10.9938 32.379 10.5136 32.8426 10.0386 33.4364C9.90026 33.6093 9.74395 33.8005 9.57282 34.0097C7.787 36.1935 4.38747 40.3507 2.99478 46.3193C1.44469 52.9626 2.41559 61.5942 9.98854 72.1123C21.9127 88.6736 33.9837 93.1813 39.044 93.1813H48.8316C49.0235 93.1813 49.4473 93.2184 50.1655 93.3037C50.6347 93.3594 51.1812 93.4293 51.8036 93.509C52.0959 93.5464 52.4049 93.5859 52.7304 93.6271C54.7517 93.883 57.3341 94.1931 60.13 94.4002C65.6449 94.8088 72.2776 94.8442 77.1207 93.083C85.9004 89.8904 90.63 89.0933 102.772 88.2838C105.791 88.0826 107.716 87.8229 108.793 87.4189C109.082 87.3105 109.407 87.1578 109.696 86.9264C109.997 86.6862 110.332 86.2988 110.452 85.7363C110.573 85.1719 110.423 84.6892 110.257 84.3685C110.099 84.0626 109.89 83.8274 109.73 83.6675C109.417 83.3541 109.013 83.0618 108.714 82.8472C108.674 82.8179 108.634 82.7893 108.595 82.7612C108.304 82.5525 108.057 82.3751 107.837 82.1914C107.734 82.1056 107.657 82.0342 107.599 81.9768C107.684 81.7949 107.808 81.5482 107.98 81.2281C108.266 80.6979 108.636 80.0525 109.07 79.3068C109.206 79.0726 109.348 78.8293 109.494 78.578C110.272 77.2447 111.18 75.6869 112.051 74.0758C113.084 72.1644 114.095 70.123 114.797 68.2188C115.476 66.379 115.97 64.4039 115.692 62.7346C115.625 62.3368 115.665 62.1033 115.71 61.9688C115.754 61.8378 115.834 61.709 115.991 61.5642C116.368 61.2164 117.006 60.9275 118.011 60.5572C118.116 60.5183 118.227 60.4782 118.343 60.4364C119.172 60.1361 120.225 59.755 121.061 59.2021C122.13 58.4954 123.054 57.3778 123.054 55.662C123.054 54.4085 122.8 53.3965 122.378 52.5358C121.969 51.6989 121.432 51.0754 121.011 50.602L120.953 50.5366C120.133 49.6145 119.792 49.2311 119.792 48.3213C119.792 47.8408 119.777 47.3442 119.762 46.8313C119.669 43.6636 119.558 39.8733 122.751 35.4036C123.8 33.9347 124.531 32.2109 123.537 30.703C123.105 30.0469 122.475 29.6803 121.976 29.4622C121.467 29.2402 120.918 29.0985 120.471 28.9933C120.293 28.9514 120.135 28.9159 119.99 28.8833C119.836 28.8487 119.696 28.8174 119.562 28.785C121.537 26.1572 121.614 22.1628 120.756 18.9459C120.304 17.2506 119.556 15.6086 118.523 14.3018C117.492 12.9976 116.093 11.9303 114.351 11.6399C112.965 11.409 111.61 11.414 110.378 11.4396C110.194 11.4434 110.014 11.4477 109.836 11.4519C108.783 11.4766 107.832 11.499 106.877 11.4194C104.796 11.2459 102.769 10.5935 100.64 8.10916C99.141 6.3608 96.7833 5.11922 94.3062 4.25359C91.7902 3.37434 88.9582 2.81672 86.3093 2.55183C83.6713 2.28803 81.1216 2.30526 79.1753 2.62965C78.2173 2.78931 77.2864 3.04205 76.5497 3.45262C75.8396 3.84839 74.932 4.62564 74.932 5.90823C74.932 6.36571 74.7867 6.62289 74.607 6.80995C74.3928 7.03291 74.0502 7.22906 73.604 7.36548C73.0965 7.52063 72.4467 7.42855 71.4348 7.11386Z" stroke="black" stroke-width="3.26254"/>
</g>
<mask id="mask1_1_71" style="mask-type:alpha" maskUnits="userSpaceOnUse" x="68" y="54" width="39" height="27">
<path d="M81.4854 76.5916C79.142 75.0293 75.6101 73.0851 72.9189 71.3095C70.3475 69.6128 70.103 66.5244 71.2526 63.6662C71.7691 62.3822 72.2409 61.0644 72.5134 59.9742C73.329 56.7117 91.273 58.3429 92.9043 56.7116C94.5356 55.0804 103.508 57.5273 105.139 61.6055C106.77 65.6836 98.6137 76.5916 96.1668 77.4072C93.7199 78.2228 86.3792 79.8541 81.4854 76.5916Z" fill="#FEA0AD" stroke="black" stroke-width="3.26254"/>
</mask>
<g mask="url(#mask1_1_71)">
<path d="M81.4854 76.5916C79.142 75.0293 75.6101 73.0851 72.9189 71.3095C70.3475 69.6128 70.103 66.5244 71.2526 63.6662C71.7691 62.3822 72.2409 61.0644 72.5134 59.9742C73.329 56.7117 91.273 58.3429 92.9043 56.7116C94.5356 55.0804 103.508 57.5273 105.139 61.6055C106.77 65.6836 98.6137 76.5916 96.1668 77.4072C93.7199 78.2228 86.3792 79.8541 81.4854 76.5916Z" fill="#724129" stroke="black" stroke-width="3.26254"/>
<path d="M85.7119 63.8928C78.0004 60.3337 74.0952 64.2636 73.1066 66.6734C72.3651 67.9633 70.8821 72.7907 70.8821 74.459C70.8821 76.1274 71.6236 77.2396 73.1066 78.3519C74.5896 79.4641 80.5215 81.1324 82.7459 81.6885C84.9704 82.2447 91.6438 81.1324 96.0927 79.4641C100.542 77.7957 103.508 71.6785 103.508 68.3418C103.508 65.6724 101.53 64.6343 100.542 64.449C99.0586 61.6684 96.0927 61.6684 93.1267 61.6684C90.754 61.6684 88.1835 63.5221 87.1948 64.449L85.7119 63.8928Z" fill="#E64949" stroke="black" stroke-width="1.63127"/>
<path d="M86.5162 72.3383C86.2663 72.7131 86.3676 73.2195 86.7424 73.4694C87.1172 73.7192 87.6236 73.6179 87.8735 73.2431L86.5162 72.3383ZM86.8435 65.1851C87.2752 65.3911 87.562 65.7551 87.7302 66.293C87.9043 66.8497 87.9374 67.5608 87.8488 68.3478C87.6701 69.9339 87.0296 71.5682 86.5162 72.3383L87.8735 73.2431C88.5465 72.2337 89.2653 70.3458 89.4698 68.5304C89.5727 67.6167 89.5533 66.657 89.2871 65.8061C89.0151 64.9363 88.4738 64.1556 87.5462 63.7129L86.8435 65.1851Z" fill="black"/>
<path d="M81.4854 76.5916C79.142 75.0293 75.6101 73.0851 72.9189 71.3095C70.3475 69.6128 70.103 66.5244 71.2526 63.6662C71.7691 62.3822 72.2409 61.0644 72.5134 59.9742C73.329 56.7117 91.273 58.3429 92.9043 56.7116C94.5356 55.0804 103.508 57.5273 105.139 61.6055C106.77 65.6836 98.6137 76.5916 96.1668 77.4072C93.7199 78.2228 86.3792 79.8541 81.4854 76.5916Z" stroke="black" stroke-width="3.26254"/>
</g>
<path d="M90.0524 52.2823C83.687 47.3552 68.7337 47.6178 59.0579 48.6728C56.6947 48.9305 54.5694 49.905 54.5694 52.2823C54.5694 58.3054 63.907 61.3169 68.8871 62.5216C73.8672 63.7262 99.39 59.51 90.0524 52.2823Z" fill="#F3E29B"/>
<path d="M117.483 50.2709C113.121 47.6398 100.308 49.5568 93.4817 51.0387C92.7695 51.1933 92.1518 51.6198 91.7408 52.2215C91.429 52.6779 90.9867 53.0242 90.5019 53.2898C87.7211 54.8135 86.1669 57.8206 98.2926 60.1466C111.496 62.6793 119.021 58.5294 121.133 56.1379C121.837 55.3407 122.093 53.0513 117.483 50.2709Z" fill="#F3E29B"/>
<path d="M87.4806 54.7011C86.1756 52.7436 89.6556 49.5355 91.5588 48.1761C91.9005 47.9128 92.9185 48.0734 94.0994 48.3994C96.7002 49.1176 98.938 51.2766 98.6647 53.9608C98.4918 55.6581 97.6963 57.2773 95.6369 57.9637C90.7431 59.595 89.1119 57.1481 87.4806 54.7012L87.4806 54.7011Z" fill="black" stroke="black" stroke-width="1.63127" stroke-linecap="round"/>
<path d="M65.9883 34.2606C65.9883 34.8044 66.6408 35.5656 69.2509 34.2606C71.8609 32.9556 79.0385 33.7168 82.301 34.2606" stroke="black" stroke-width="1.63127" stroke-linecap="round"/>
<path d="M106.77 30.998C103.589 29.1801 99.6948 30.4223 96.7977 32.0787C94.7105 33.272 94.832 35.3358 96.9825 34.2606C99.3964 33.0536 105.717 33.6141 109.235 34.1353C109.768 34.2144 110.717 34.3461 110.543 33.8357C110.391 33.389 109.453 32.5312 106.77 30.998Z" fill="black" stroke="black" stroke-width="1.63127" stroke-linecap="round"/>
<circle cx="75.7759" cy="39.888" r="4.89381" fill="black"/>
<circle cx="101.876" cy="39.888" r="4.89381" fill="black"/>
<path d="M74.1447 8.07819C76.3197 9.98134 82.1379 16.7239 84.7479 21.944" stroke="black" stroke-width="3.26254" stroke-linecap="round"/>
<path d="M78.2229 13.7876C74.1447 12.1563 64.1939 9.87257 57.0163 13.7876" stroke="black" stroke-width="1.63127"/>
<path d="M100.245 14.318C96.1668 12.6868 86.2161 10.403 79.0385 14.318" stroke="black" stroke-width="1.63127"/>
<path d="M48.86 30.916C50.7631 29.2847 55.0588 25.6959 57.0163 24.3909C59.4632 22.7596 67.6196 25.2065 72.5134 21.944C76.4285 19.3339 81.2135 19.7689 83.1167 20.3127C82.0292 18.4096 78.386 14.9295 72.5134 16.2345C65.1727 17.8658 55.3851 17.0502 53.7538 21.1283" stroke="black" stroke-width="1.63127"/>
<path d="M101.333 23.6998C99.7013 22.0997 94.2637 24.4999 91.0011 21.2996C88.3911 18.7394 85.2011 19.1661 83.9323 19.6995C84.6573 17.8327 87.0861 14.4191 91.0011 15.6992C95.895 17.2993 102.42 16.4993 103.508 20.4996" stroke="black" stroke-width="1.63127"/>
<path d="M53.7538 52.1225C53.579 56.9906 62.0917 63.943 74.6725 62.5949C75.721 62.5949 86.788 60.6405 90.4574 57.8319" stroke="black" stroke-width="1.63127" stroke-linecap="round"/>
<path d="M93.7199 58.6476C98.6137 60.2789 110.359 63.2152 118.189 58.6476C126.019 54.08 122.539 51.3069 119.82 50.4912" stroke="black" stroke-width="1.63127" stroke-linecap="round"/>
</svg>
